<mxfile host="app.diagrams.net" modified="2020-09-28T00:29:16.776Z" agent="5.0 (Macintosh; Intel Mac OS X 10_15_6) AppleWebKit/605.1.15 (KHTML, like Gecko) Version/14.0 Mobile/15E148 Safari/604.1" etag="iNPpISvMXoOrVTjv7QPw" version="13.7.3" type="github" pages="3">
  <diagram id="AZMaDSbWkGERWLqelwLr" name="Page-1">
    <mxGraphModel dx="1702" dy="1078" grid="1" gridSize="10" guides="1" tooltips="1" connect="1" arrows="1" fold="1" page="1" pageScale="1" pageWidth="827" pageHeight="1169" math="0" shadow="0">
      <root>
        <mxCell id="0" />
        <mxCell id="1" parent="0" />
        <mxCell id="2b95DclGzusZ2Ba9lpOo-1" value="Archive annt&amp;nbsp;" style="rounded=1;whiteSpace=wrap;html=1;" parent="1" vertex="1">
          <mxGeometry x="80" y="300" width="150" height="60" as="geometry" />
        </mxCell>
        <mxCell id="2b95DclGzusZ2Ba9lpOo-3" value="Approve&amp;nbsp;" style="rounded=1;whiteSpace=wrap;html=1;" parent="1" vertex="1">
          <mxGeometry x="560" y="410" width="120" height="60" as="geometry" />
        </mxCell>
        <mxCell id="2b95DclGzusZ2Ba9lpOo-4" value="Warnning cts" style="rounded=1;whiteSpace=wrap;html=1;" parent="1" vertex="1">
          <mxGeometry x="430" y="700" width="120" height="60" as="geometry" />
        </mxCell>
        <mxCell id="2b95DclGzusZ2Ba9lpOo-5" value="Warning msg" style="rounded=1;whiteSpace=wrap;html=1;" parent="1" vertex="1">
          <mxGeometry x="30" y="700" width="160" height="60" as="geometry" />
        </mxCell>
        <mxCell id="2b95DclGzusZ2Ba9lpOo-6" value="Archive cst" style="rounded=1;whiteSpace=wrap;html=1;" parent="1" vertex="1">
          <mxGeometry x="260" y="170" width="120" height="60" as="geometry" />
        </mxCell>
        <mxCell id="2b95DclGzusZ2Ba9lpOo-7" value="Login&amp;nbsp;" style="rounded=1;whiteSpace=wrap;html=1;" parent="1" vertex="1">
          <mxGeometry x="560" y="170" width="120" height="60" as="geometry" />
        </mxCell>
        <mxCell id="2b95DclGzusZ2Ba9lpOo-8" value="" style="endArrow=classic;html=1;entryX=1;entryY=0.5;entryDx=0;entryDy=0;" parent="1" source="2b95DclGzusZ2Ba9lpOo-7" target="2b95DclGzusZ2Ba9lpOo-6" edge="1">
          <mxGeometry relative="1" as="geometry">
            <mxPoint x="310" y="430" as="sourcePoint" />
            <mxPoint x="480" y="120" as="targetPoint" />
            <Array as="points" />
          </mxGeometry>
        </mxCell>
        <mxCell id="2b95DclGzusZ2Ba9lpOo-9" value="查询group" style="edgeLabel;resizable=0;html=1;align=center;verticalAlign=middle;rotation=0;" parent="2b95DclGzusZ2Ba9lpOo-8" connectable="0" vertex="1">
          <mxGeometry relative="1" as="geometry" />
        </mxCell>
        <mxCell id="2b95DclGzusZ2Ba9lpOo-16" value="" style="endArrow=classic;html=1;entryX=0;entryY=0.5;entryDx=0;entryDy=0;" parent="1" target="2b95DclGzusZ2Ba9lpOo-4" edge="1">
          <mxGeometry relative="1" as="geometry">
            <mxPoint x="190" y="730" as="sourcePoint" />
            <mxPoint x="350" y="430" as="targetPoint" />
          </mxGeometry>
        </mxCell>
        <mxCell id="2b95DclGzusZ2Ba9lpOo-17" value="Label" style="edgeLabel;resizable=0;html=1;align=center;verticalAlign=middle;" parent="2b95DclGzusZ2Ba9lpOo-16" connectable="0" vertex="1">
          <mxGeometry relative="1" as="geometry" />
        </mxCell>
        <mxCell id="2b95DclGzusZ2Ba9lpOo-18" value="" style="endArrow=classic;html=1;" parent="1" edge="1">
          <mxGeometry relative="1" as="geometry">
            <mxPoint x="140" y="700" as="sourcePoint" />
            <mxPoint x="145" y="360" as="targetPoint" />
          </mxGeometry>
        </mxCell>
        <mxCell id="2b95DclGzusZ2Ba9lpOo-19" value="Label" style="edgeLabel;resizable=0;html=1;align=center;verticalAlign=middle;" parent="2b95DclGzusZ2Ba9lpOo-18" connectable="0" vertex="1">
          <mxGeometry relative="1" as="geometry" />
        </mxCell>
        <mxCell id="2b95DclGzusZ2Ba9lpOo-20" value="" style="endArrow=classic;html=1;entryX=0.25;entryY=1;entryDx=0;entryDy=0;exitX=0.5;exitY=0;exitDx=0;exitDy=0;" parent="1" source="2b95DclGzusZ2Ba9lpOo-1" target="2b95DclGzusZ2Ba9lpOo-6" edge="1">
          <mxGeometry relative="1" as="geometry">
            <mxPoint x="250" y="430" as="sourcePoint" />
            <mxPoint x="350" y="430" as="targetPoint" />
            <Array as="points">
              <mxPoint x="155" y="270" />
              <mxPoint x="290" y="270" />
            </Array>
          </mxGeometry>
        </mxCell>
        <mxCell id="2b95DclGzusZ2Ba9lpOo-21" value="Label" style="edgeLabel;resizable=0;html=1;align=center;verticalAlign=middle;" parent="2b95DclGzusZ2Ba9lpOo-20" connectable="0" vertex="1">
          <mxGeometry relative="1" as="geometry" />
        </mxCell>
        <mxCell id="2b95DclGzusZ2Ba9lpOo-22" value="" style="endArrow=classic;html=1;entryX=0;entryY=0.5;entryDx=0;entryDy=0;" parent="1" target="2b95DclGzusZ2Ba9lpOo-6" edge="1">
          <mxGeometry relative="1" as="geometry">
            <mxPoint x="55" y="700" as="sourcePoint" />
            <mxPoint x="350" y="430" as="targetPoint" />
            <Array as="points">
              <mxPoint x="55" y="200" />
            </Array>
          </mxGeometry>
        </mxCell>
        <mxCell id="2b95DclGzusZ2Ba9lpOo-23" value="Label" style="edgeLabel;resizable=0;html=1;align=center;verticalAlign=middle;" parent="2b95DclGzusZ2Ba9lpOo-22" connectable="0" vertex="1">
          <mxGeometry relative="1" as="geometry" />
        </mxCell>
        <mxCell id="2b95DclGzusZ2Ba9lpOo-25" value="" style="endArrow=classic;html=1;entryX=0.25;entryY=0;entryDx=0;entryDy=0;exitX=0.867;exitY=1;exitDx=0;exitDy=0;exitPerimeter=0;" parent="1" source="2b95DclGzusZ2Ba9lpOo-1" target="2b95DclGzusZ2Ba9lpOo-4" edge="1">
          <mxGeometry relative="1" as="geometry">
            <mxPoint x="210" y="370" as="sourcePoint" />
            <mxPoint x="380" y="460" as="targetPoint" />
            <Array as="points">
              <mxPoint x="210" y="650" />
              <mxPoint x="460" y="650" />
            </Array>
          </mxGeometry>
        </mxCell>
        <mxCell id="2b95DclGzusZ2Ba9lpOo-26" value="Label" style="edgeLabel;resizable=0;html=1;align=center;verticalAlign=middle;" parent="2b95DclGzusZ2Ba9lpOo-25" connectable="0" vertex="1">
          <mxGeometry relative="1" as="geometry" />
        </mxCell>
        <mxCell id="2b95DclGzusZ2Ba9lpOo-29" value="" style="endArrow=classic;html=1;entryX=0.5;entryY=0;entryDx=0;entryDy=0;exitX=0.75;exitY=1;exitDx=0;exitDy=0;" parent="1" source="2b95DclGzusZ2Ba9lpOo-6" target="2b95DclGzusZ2Ba9lpOo-3" edge="1">
          <mxGeometry relative="1" as="geometry">
            <mxPoint x="340" y="240" as="sourcePoint" />
            <mxPoint x="440" y="240" as="targetPoint" />
            <Array as="points">
              <mxPoint x="350" y="270" />
              <mxPoint x="620" y="270" />
            </Array>
          </mxGeometry>
        </mxCell>
        <mxCell id="2b95DclGzusZ2Ba9lpOo-30" value="Label" style="edgeLabel;resizable=0;html=1;align=center;verticalAlign=middle;" parent="2b95DclGzusZ2Ba9lpOo-29" connectable="0" vertex="1">
          <mxGeometry relative="1" as="geometry" />
        </mxCell>
        <mxCell id="2b95DclGzusZ2Ba9lpOo-31" value="" style="endArrow=classic;html=1;entryX=0.25;entryY=1;entryDx=0;entryDy=0;exitX=0.75;exitY=0;exitDx=0;exitDy=0;" parent="1" source="2b95DclGzusZ2Ba9lpOo-4" target="2b95DclGzusZ2Ba9lpOo-3" edge="1">
          <mxGeometry relative="1" as="geometry">
            <mxPoint x="520" y="590" as="sourcePoint" />
            <mxPoint x="620" y="590" as="targetPoint" />
            <Array as="points">
              <mxPoint x="520" y="650" />
              <mxPoint x="590" y="650" />
            </Array>
          </mxGeometry>
        </mxCell>
        <mxCell id="2b95DclGzusZ2Ba9lpOo-32" value="Label" style="edgeLabel;resizable=0;html=1;align=center;verticalAlign=middle;" parent="2b95DclGzusZ2Ba9lpOo-31" connectable="0" vertex="1">
          <mxGeometry relative="1" as="geometry" />
        </mxCell>
        <mxCell id="2b95DclGzusZ2Ba9lpOo-33" value="" style="endArrow=classic;html=1;entryX=1;entryY=0.5;entryDx=0;entryDy=0;" parent="1" target="2b95DclGzusZ2Ba9lpOo-4" edge="1">
          <mxGeometry relative="1" as="geometry">
            <mxPoint x="680" y="200" as="sourcePoint" />
            <mxPoint x="560" y="750" as="targetPoint" />
            <Array as="points">
              <mxPoint x="760" y="200" />
              <mxPoint x="760" y="730" />
            </Array>
          </mxGeometry>
        </mxCell>
        <mxCell id="2b95DclGzusZ2Ba9lpOo-34" value="Label" style="edgeLabel;resizable=0;html=1;align=center;verticalAlign=middle;" parent="2b95DclGzusZ2Ba9lpOo-33" connectable="0" vertex="1">
          <mxGeometry relative="1" as="geometry" />
        </mxCell>
        <mxCell id="GVDsOGDUcJTHOGfxchVS-1" value="" style="endArrow=classic;html=1;entryX=0.5;entryY=1;entryDx=0;entryDy=0;" parent="1" target="2b95DclGzusZ2Ba9lpOo-6" edge="1">
          <mxGeometry relative="1" as="geometry">
            <mxPoint x="490" y="700" as="sourcePoint" />
            <mxPoint x="300" y="230" as="targetPoint" />
            <Array as="points">
              <mxPoint x="490" y="520" />
              <mxPoint x="320" y="520" />
            </Array>
          </mxGeometry>
        </mxCell>
        <mxCell id="GVDsOGDUcJTHOGfxchVS-2" value="Label" style="edgeLabel;resizable=0;html=1;align=center;verticalAlign=middle;" parent="GVDsOGDUcJTHOGfxchVS-1" connectable="0" vertex="1">
          <mxGeometry relative="1" as="geometry" />
        </mxCell>
        <mxCell id="GVDsOGDUcJTHOGfxchVS-4" value="" style="endArrow=classic;html=1;entryX=0.75;entryY=1;entryDx=0;entryDy=0;exitX=0.75;exitY=1;exitDx=0;exitDy=0;" parent="1" source="2b95DclGzusZ2Ba9lpOo-3" edge="1">
          <mxGeometry relative="1" as="geometry">
            <mxPoint x="440" y="460" as="sourcePoint" />
            <mxPoint x="540" y="700" as="targetPoint" />
            <Array as="points">
              <mxPoint x="650" y="670" />
              <mxPoint x="540" y="670" />
            </Array>
          </mxGeometry>
        </mxCell>
        <mxCell id="GVDsOGDUcJTHOGfxchVS-5" value="Label" style="edgeLabel;resizable=0;html=1;align=center;verticalAlign=middle;" parent="GVDsOGDUcJTHOGfxchVS-4" connectable="0" vertex="1">
          <mxGeometry relative="1" as="geometry" />
        </mxCell>
      </root>
    </mxGraphModel>
  </diagram>
  <diagram id="O4fi7PjuAj66xvKHBr-o" name="Page-2">
    <mxGraphModel dx="766" dy="485" grid="1" gridSize="10" guides="1" tooltips="1" connect="1" arrows="1" fold="1" page="1" pageScale="1" pageWidth="827" pageHeight="1169" math="0" shadow="0">
      <root>
        <mxCell id="3OpG-_NXZ06EMI2RBUC4-0" />
        <mxCell id="3OpG-_NXZ06EMI2RBUC4-1" parent="3OpG-_NXZ06EMI2RBUC4-0" />
        <mxCell id="3OpG-_NXZ06EMI2RBUC4-7" value="创建" style="html=1;verticalAlign=bottom;startArrow=circle;startFill=1;endArrow=open;startSize=6;endSize=8;entryX=0;entryY=0.5;entryDx=0;entryDy=0;" parent="3OpG-_NXZ06EMI2RBUC4-1" target="3OpG-_NXZ06EMI2RBUC4-26" edge="1">
          <mxGeometry width="80" relative="1" as="geometry">
            <mxPoint x="50" y="505" as="sourcePoint" />
            <mxPoint x="59.99615384615382" y="490" as="targetPoint" />
          </mxGeometry>
        </mxCell>
        <mxCell id="3OpG-_NXZ06EMI2RBUC4-26" value="正常状态" style="ellipse;whiteSpace=wrap;html=1;" parent="3OpG-_NXZ06EMI2RBUC4-1" vertex="1">
          <mxGeometry x="190" y="470" width="140" height="70" as="geometry" />
        </mxCell>
        <mxCell id="3OpG-_NXZ06EMI2RBUC4-27" value="风险" style="ellipse;whiteSpace=wrap;html=1;" parent="3OpG-_NXZ06EMI2RBUC4-1" vertex="1">
          <mxGeometry x="250" y="300" width="140" height="70" as="geometry" />
        </mxCell>
        <mxCell id="3OpG-_NXZ06EMI2RBUC4-28" value="异常" style="html=1;verticalAlign=bottom;endArrow=block;entryX=0;entryY=1;entryDx=0;entryDy=0;exitX=0.5;exitY=0;exitDx=0;exitDy=0;" parent="3OpG-_NXZ06EMI2RBUC4-1" source="3OpG-_NXZ06EMI2RBUC4-26" target="3OpG-_NXZ06EMI2RBUC4-27" edge="1">
          <mxGeometry width="80" relative="1" as="geometry">
            <mxPoint x="310" y="440" as="sourcePoint" />
            <mxPoint x="390" y="440" as="targetPoint" />
          </mxGeometry>
        </mxCell>
        <mxCell id="3OpG-_NXZ06EMI2RBUC4-29" value="告警" style="ellipse;whiteSpace=wrap;html=1;" parent="3OpG-_NXZ06EMI2RBUC4-1" vertex="1">
          <mxGeometry x="470" y="370" width="140" height="70" as="geometry" />
        </mxCell>
        <mxCell id="3OpG-_NXZ06EMI2RBUC4-30" value="升级" style="html=1;verticalAlign=bottom;endArrow=block;exitX=1;exitY=0.5;exitDx=0;exitDy=0;entryX=0;entryY=0;entryDx=0;entryDy=0;" parent="3OpG-_NXZ06EMI2RBUC4-1" source="3OpG-_NXZ06EMI2RBUC4-27" target="3OpG-_NXZ06EMI2RBUC4-29" edge="1">
          <mxGeometry width="80" relative="1" as="geometry">
            <mxPoint x="470" y="410" as="sourcePoint" />
            <mxPoint x="490" y="370" as="targetPoint" />
          </mxGeometry>
        </mxCell>
        <mxCell id="3OpG-_NXZ06EMI2RBUC4-31" value="" style="endArrow=classic;html=1;entryX=1;entryY=1;entryDx=0;entryDy=0;exitX=0.714;exitY=1;exitDx=0;exitDy=0;exitPerimeter=0;" parent="3OpG-_NXZ06EMI2RBUC4-1" source="3OpG-_NXZ06EMI2RBUC4-29" target="3OpG-_NXZ06EMI2RBUC4-26" edge="1">
          <mxGeometry relative="1" as="geometry">
            <mxPoint x="390" y="470" as="sourcePoint" />
            <mxPoint x="490" y="470" as="targetPoint" />
          </mxGeometry>
        </mxCell>
        <mxCell id="3OpG-_NXZ06EMI2RBUC4-32" value="解除" style="edgeLabel;resizable=0;html=1;align=center;verticalAlign=middle;" parent="3OpG-_NXZ06EMI2RBUC4-31" connectable="0" vertex="1">
          <mxGeometry relative="1" as="geometry" />
        </mxCell>
        <mxCell id="3OpG-_NXZ06EMI2RBUC4-36" value="异常" style="html=1;verticalAlign=bottom;endArrow=block;entryX=0;entryY=0.5;entryDx=0;entryDy=0;exitX=1;exitY=0;exitDx=0;exitDy=0;" parent="3OpG-_NXZ06EMI2RBUC4-1" source="3OpG-_NXZ06EMI2RBUC4-26" target="3OpG-_NXZ06EMI2RBUC4-29" edge="1">
          <mxGeometry width="80" relative="1" as="geometry">
            <mxPoint x="400" y="470" as="sourcePoint" />
            <mxPoint x="480" y="470" as="targetPoint" />
          </mxGeometry>
        </mxCell>
      </root>
    </mxGraphModel>
  </diagram>
  <diagram id="DIKuKLWVR33t_F8zhNLH" name="Page-3">
    <mxGraphModel dx="510" dy="775" grid="1" gridSize="10" guides="1" tooltips="1" connect="1" arrows="1" fold="1" page="1" pageScale="1" pageWidth="827" pageHeight="1169" math="0" shadow="0">
      <root>
        <mxCell id="s_ZH6N7h9w6DZfI0ku17-0" />
        <mxCell id="s_ZH6N7h9w6DZfI0ku17-1" parent="s_ZH6N7h9w6DZfI0ku17-0" />
        <mxCell id="s_ZH6N7h9w6DZfI0ku17-2" value="开始" style="ellipse;whiteSpace=wrap;html=1;" vertex="1" parent="s_ZH6N7h9w6DZfI0ku17-1">
          <mxGeometry y="370" width="140" height="70" as="geometry" />
        </mxCell>
        <mxCell id="s_ZH6N7h9w6DZfI0ku17-6" value="进行中" style="ellipse;whiteSpace=wrap;html=1;" vertex="1" parent="s_ZH6N7h9w6DZfI0ku17-1">
          <mxGeometry x="230" y="250" width="140" height="70" as="geometry" />
        </mxCell>
        <mxCell id="s_ZH6N7h9w6DZfI0ku17-7" value="完成" style="ellipse;whiteSpace=wrap;html=1;" vertex="1" parent="s_ZH6N7h9w6DZfI0ku17-1">
          <mxGeometry x="414" y="370" width="140" height="70" as="geometry" />
        </mxCell>
        <mxCell id="s_ZH6N7h9w6DZfI0ku17-8" value="异常" style="ellipse;whiteSpace=wrap;html=1;" vertex="1" parent="s_ZH6N7h9w6DZfI0ku17-1">
          <mxGeometry x="150" y="550" width="140" height="70" as="geometry" />
        </mxCell>
        <mxCell id="s_ZH6N7h9w6DZfI0ku17-14" value="dispatch" style="html=1;verticalAlign=bottom;endArrow=block;" edge="1" parent="s_ZH6N7h9w6DZfI0ku17-1" target="s_ZH6N7h9w6DZfI0ku17-6">
          <mxGeometry width="80" relative="1" as="geometry">
            <mxPoint x="100" y="370" as="sourcePoint" />
            <mxPoint x="180" y="370" as="targetPoint" />
          </mxGeometry>
        </mxCell>
        <mxCell id="s_ZH6N7h9w6DZfI0ku17-16" value="dispatch" style="html=1;verticalAlign=bottom;endArrow=block;entryX=0.329;entryY=0;entryDx=0;entryDy=0;entryPerimeter=0;exitX=1;exitY=0.5;exitDx=0;exitDy=0;" edge="1" parent="s_ZH6N7h9w6DZfI0ku17-1" source="s_ZH6N7h9w6DZfI0ku17-6" target="s_ZH6N7h9w6DZfI0ku17-7">
          <mxGeometry width="80" relative="1" as="geometry">
            <mxPoint x="270" y="420" as="sourcePoint" />
            <mxPoint x="350" y="420" as="targetPoint" />
          </mxGeometry>
        </mxCell>
        <mxCell id="s_ZH6N7h9w6DZfI0ku17-17" value="dispatch" style="html=1;verticalAlign=bottom;endArrow=block;exitX=0.5;exitY=1;exitDx=0;exitDy=0;entryX=0.5;entryY=0;entryDx=0;entryDy=0;" edge="1" parent="s_ZH6N7h9w6DZfI0ku17-1" source="s_ZH6N7h9w6DZfI0ku17-6" target="s_ZH6N7h9w6DZfI0ku17-8">
          <mxGeometry width="80" relative="1" as="geometry">
            <mxPoint x="280" y="380" as="sourcePoint" />
            <mxPoint x="240" y="540" as="targetPoint" />
          </mxGeometry>
        </mxCell>
      </root>
    </mxGraphModel>
  </diagram>
</mxfile>
